<!--Generator: Adobe Illustrator 19.1.0, SVG Export Plug-In . SVG Version: 6.00 Build 0)--><svg xmlns="http://www.w3.org/2000/svg" viewBox="0 0 50 50"><path fill="#2E3D49" d="M22.7 29v-.9c0-1 .2-1.9.6-2.6.4-.7 1-1.4 2-2.1 1.1-.9 1.8-1.6 2.2-2.1.3-.5.5-1.1.5-1.7 0-.8-.3-1.4-.8-1.8-.5-.4-1.3-.6-2.3-.6-.9 0-1.7.1-2.5.4s-1.5.6-2.2.9L19 16c1.9-1.1 3.9-1.6 6.1-1.6 1.8 0 3.3.5 4.4 1.4 1.1.9 1.6 2.1 1.6 3.7 0 .7-.1 1.3-.3 1.9-.2.5-.5 1.1-.9 1.6s-1.1 1.1-2.2 1.9c-.9.7-1.5 1.3-1.8 1.7-.3.5-.4 1.1-.4 1.8v.6h-2.8zm-.6 4.5c0-1.4.7-2.1 2.1-2.1.7 0 1.2.2 1.5.6.4.4.5.9.5 1.6 0 .7-.2 1.2-.5 1.6-.4.4-.9.6-1.5.6-.7 0-1.2-.2-1.5-.6s-.6-1-.6-1.7z" opacity=".7"/><path opacity=".7" fill="#2E3D49" d="M25 50C11.2 50 0 38.8 0 25S11.2 0 25 0s25 11.2 25 25-11.2 25-25 25zm0-47.6C12.5 2.4 2.4 12.5 2.4 25c0 12.5 10.1 22.6 22.6 22.6 12.5 0 22.6-10.1 22.6-22.6C47.6 12.5 37.5 2.4 25 2.4z"/></svg>